# xmcd
#
# Track frame offsets: 
#        150
#        42367
#        68633
#        104919
#        140237
#        175526
#        203133
#        236565
#        265539
#        288548
#
# Disc length: 4441 seconds
#
# Revision: 0
# Processed by: cddbd v1.5.2PL0 Copyright (c) Steve Scherf et al.
# Submitted via: ExactAudioCopy v0.99pb3
#
DISCID=9611570a
DTITLE=Stan Tracey - Appleby Jazz Festival
DYEAR=2008
DGENRE=Big Band
TTITLE0=Feather, Fin And Limb
TTITLE1=Well You Needn't
TTITLE2=Festival Junction
TTITLE3='Round Midnight
TTITLE4=Too Good
TTITLE5=Pajaras Exoticas
TTITLE6=Epistrophy
TTITLE7=Pulses
TTITLE8=Passion Flower
TTITLE9=The Sixth Day
EXTD=
EXTT0=
EXTT1=
EXTT2=
EXTT3=
EXTT4=
EXTT5=
EXTT6=
EXTT7=
EXTT8=
EXTT9=
PLAYORDER=
